<svg xmlns="http://www.w3.org/2000/svg" width="512" height="512" viewBox="0 0 512 512">
  <!-- TicketTracker - Variant 1: Ticket + Stopwatch (no text) -->
  <defs>
    <linearGradient id="urgency" x1="0" x2="1" y1="0" y2="0">
      <stop offset="0%" stop-color="#2980B9"/>
      <stop offset="50%" stop-color="#F39C12"/>
      <stop offset="100%" stop-color="#C0392B"/>
    </linearGradient>
    <filter id="softShadow" x="-50%" y="-50%" width="200%" height="200%">
      <feDropShadow dx="0" dy="4" stdDeviation="8" flood-opacity="0.2"/>
    </filter>
  </defs>

  <!-- Optional preview background for dark mode (toggle display to 'inline' to see) -->
  <rect x="0" y="0" width="512" height="512" fill="#0F1115" rx="32" ry="32" display="none"/>
  
  <!-- Ticket body -->
  <g filter="url(#softShadow)">
    <path d="
      M96,176 
      h240 
      a16,16 0 0 1 16,16 
      v32 
      a24,24 0 0 0 0,48 
      v32 
      a16,16 0 0 1 -16,16 
      h-240
      a16,16 0 0 1 -16,-16
      v-32
      a24,24 0 0 0 0,-48
      v-32
      a16,16 0 0 1 16,-16
      z" fill="#1F2A35" stroke="#2C3E50" stroke-width="4" />
    
    <!-- Perforation dots -->
    <g opacity="0.6">
      <circle cx="128" cy="192" r="2" fill="#6C7A89"/>
      <circle cx="128" cy="208" r="2" fill="#6C7A89"/>
      <circle cx="128" cy="224" r="2" fill="#6C7A89"/>
      <circle cx="128" cy="240" r="2" fill="#6C7A89"/>
      <circle cx="128" cy="256" r="2" fill="#6C7A89"/>
      <circle cx="128" cy="272" r="2" fill="#6C7A89"/>
      <circle cx="128" cy="288" r="2" fill="#6C7A89"/>
      <circle cx="128" cy="304" r="2" fill="#6C7A89"/>
      <circle cx="128" cy="320" r="2" fill="#6C7A89"/>
    </g>
    
    <!-- Urgency bar -->
    <rect x="160" y="208" width="144" height="16" rx="8" fill="url(#urgency)"/>
    <rect x="160" y="240" width="112" height="10" rx="5" fill="#4A90E2" opacity="0.6"/>
    <rect x="160" y="264" width="80" height="10" rx="5" fill="#4A90E2" opacity="0.35"/>
  </g>
  
  <!-- Stopwatch overlay (top-right) -->
  <g transform="translate(336,160)">
    <circle cx="48" cy="48" r="48" fill="#121820" stroke="#2980B9" stroke-width="4"/>
    <circle cx="48" cy="48" r="40" fill="none" stroke="#1F2A35" stroke-width="6"/>
    <!-- clock hand -->
    <line x1="48" y1="48" x2="48" y2="22" stroke="#F39C12" stroke-width="6" stroke-linecap="round"/>
    <circle cx="48" cy="48" r="4" fill="#F39C12"/>
    <!-- crown -->
    <rect x="40" y="-2" width="16" height="10" rx="2" fill="#2980B9"/>
  </g>
</svg>
